<svg width="14" height="14" viewBox="0 0 14 14" fill="none" xmlns="http://www.w3.org/2000/svg">
<rect opacity="0.01" x="14" y="14" width="14" height="14" transform="rotate(180 14 14)" fill="#363636"/>
<path fill-rule="evenodd" clip-rule="evenodd" d="M7.00011 4.08334C5.74468 4.08334 4.63011 4.88668 4.23311 6.07768C3.83611 7.26868 4.24577 8.58009 5.25011 9.33334V11.6667C5.25011 12.311 5.77244 12.8333 6.41677 12.8333H7.58344C8.22777 12.8333 8.75011 12.311 8.75011 11.6667V9.33334C9.75444 8.58009 10.1641 7.26868 9.7671 6.07768C9.3701 4.88668 8.25553 4.08334 7.00011 4.08334V4.08334Z" fill="#363636"/>
<path fill-rule="evenodd" clip-rule="evenodd" d="M7.00008 3.49999C7.32225 3.49999 7.58341 3.23882 7.58341 2.91666V1.74999C7.58341 1.42782 7.32225 1.16666 7.00008 1.16666C6.67792 1.16666 6.41675 1.42782 6.41675 1.74999V2.91666C6.41675 3.23882 6.67792 3.49999 7.00008 3.49999Z" fill="#363636"/>
<path fill-rule="evenodd" clip-rule="evenodd" d="M12.25 6.41666H11.0833C10.7612 6.41666 10.5 6.67782 10.5 6.99999C10.5 7.32216 10.7612 7.58332 11.0833 7.58332H12.25C12.5722 7.58332 12.8333 7.32216 12.8333 6.99999C12.8333 6.67782 12.5722 6.41666 12.25 6.41666Z" fill="#363636"/>
<path fill-rule="evenodd" clip-rule="evenodd" d="M2.91675 6.41666H1.75008C1.42792 6.41666 1.16675 6.67782 1.16675 6.99999C1.16675 7.32216 1.42792 7.58332 1.75008 7.58332H2.91675C3.23891 7.58332 3.50008 7.32216 3.50008 6.99999C3.50008 6.67782 3.23891 6.41666 2.91675 6.41666Z" fill="#363636"/>
<path fill-rule="evenodd" clip-rule="evenodd" d="M4.46831 3.745L3.62831 2.91667C3.39151 2.69276 3.01805 2.70321 2.79414 2.94C2.57023 3.17679 2.58068 3.55026 2.81747 3.77417L3.65747 4.585C3.77137 4.69498 3.92508 4.75394 4.08331 4.74833C4.24208 4.74773 4.39375 4.68243 4.50331 4.5675C4.72009 4.33046 4.70444 3.96277 4.46831 3.745V3.745Z" fill="#363636"/>
<path fill-rule="evenodd" clip-rule="evenodd" d="M11.1942 2.94584C10.9667 2.71967 10.5992 2.71967 10.3717 2.94584L9.53169 3.74501C9.30552 3.97253 9.30552 4.33999 9.53169 4.56751C9.64124 4.68244 9.79291 4.74774 9.95169 4.74834C10.1019 4.74775 10.2461 4.68924 10.3542 4.58501L11.1942 3.77418C11.3046 3.66465 11.3667 3.51555 11.3667 3.36001C11.3667 3.20447 11.3046 3.05537 11.1942 2.94584V2.94584Z" fill="#363636"/>
</svg>
