<svg width="18" height="18" viewBox="0 0 18 18" fill="none" xmlns="http://www.w3.org/2000/svg">
  <path fill-rule="evenodd" clip-rule="evenodd"
        d="M11.113 8.99872L17.5567 2.56902C18.1443 1.98132 18.1443 1.02847 17.5567 0.440774C16.9691 -0.146925 16.0164 -0.146925 15.4288 0.440774L9 6.88546L2.57121 0.440774C1.9836 -0.146925 1.03088 -0.146925 0.443269 0.440774C-0.144346 1.02847 -0.144346 1.98132 0.443269 2.56902L6.88704 8.99872L0.443269 15.4284C0.159574 15.7098 0 16.0929 0 16.4925C0 16.8922 0.159574 17.2752 0.443269 17.5567C0.724647 17.8404 1.10767 18 1.50724 18C1.90681 18 2.28983 17.8404 2.57121 17.5567L9 11.112L15.4288 17.5567C15.7102 17.8404 16.0932 18 16.4928 18C16.8923 18 17.2754 17.8404 17.5567 17.5567C17.8404 17.2752 18 16.8922 18 16.4925C18 16.0929 17.8404 15.7098 17.5567 15.4284L11.113 8.99872Z"
        fill="#363636"/>
</svg>
