<svg width="16" height="16" viewBox="0 0 16 16" fill="none" xmlns="http://www.w3.org/2000/svg">
<rect opacity="0.01" width="16" height="16" fill="black"/>
<path fill-rule="evenodd" clip-rule="evenodd" d="M3.33331 2H12.6666C13.7712 2 14.6666 2.89543 14.6666 4V10.6667C14.6666 11.7712 13.7712 12.6667 12.6666 12.6667H5.69998C5.57131 12.6617 5.44396 12.6941 5.33331 12.76L2.33998 14.5733C2.23708 14.6344 2.11964 14.6666 1.99998 14.6667C1.88545 14.6663 1.77295 14.6365 1.67331 14.58C1.46366 14.4622 1.33373 14.2405 1.33331 14V4C1.33331 2.89543 2.22874 2 3.33331 2ZM7.99998 8C8.36817 8 8.66665 7.70152 8.66665 7.33333C8.66665 6.96514 8.36817 6.66667 7.99998 6.66667C7.63179 6.66667 7.33331 6.96514 7.33331 7.33333C7.33331 7.70152 7.63179 8 7.99998 8ZM11.3333 7.33333C11.3333 7.70152 11.0348 8 10.6666 8C10.2985 8 9.99998 7.70152 9.99998 7.33333C9.99998 6.96514 10.2985 6.66667 10.6666 6.66667C11.0348 6.66667 11.3333 6.96514 11.3333 7.33333ZM5.33331 8C5.7015 8 5.99998 7.70152 5.99998 7.33333C5.99998 6.96514 5.7015 6.66667 5.33331 6.66667C4.96512 6.66667 4.66665 6.96514 4.66665 7.33333C4.66665 7.70152 4.96512 8 5.33331 8Z" fill="#363636"/>
</svg>
