<svg width="11" height="12" viewBox="0 0 11 12" fill="none" xmlns="http://www.w3.org/2000/svg">
  <path fill-rule="evenodd" clip-rule="evenodd"
        d="M6.80936 12C6.66057 12 6.51579 11.9532 6.39676 11.8667L3.64608 9.83333C3.47551 9.70605 3.37626 9.50867 3.37789 9.3V7.12L0.077076 0.973335C-0.0334821 0.766448 -0.0246023 0.518615 0.100497 0.319664C0.225596 0.120713 0.44876 -0.000483707 0.689102 1.45113e-06H10.3165C10.5593 4.25034e-05 10.784 0.124202 10.9079 0.326668C11.0307 0.532935 11.0307 0.787067 10.9079 0.993335L7.46952 7.13333V11.3333C7.47134 11.5868 7.32477 11.8193 7.0913 11.9333C7.00328 11.9747 6.90716 11.9975 6.80936 12Z"
        fill="#3023AE"/>
</svg>
