<svg width="14" height="14" viewBox="0 0 14 14" fill="none" xmlns="http://www.w3.org/2000/svg">
<rect opacity="0.01" x="14" y="14" width="14" height="14" transform="rotate(180 14 14)" fill="black"/>
<path fill-rule="evenodd" clip-rule="evenodd" d="M3.73253 3.06801L5.45319 4.71159L5.48879 4.74559C5.76172 5.02897 5.85665 5.42569 5.76172 5.77708L6.58051 6.55919L5.72612 7.37531L4.90732 6.5932C4.53946 6.68388 4.12412 6.5932 3.82746 6.33249L3.79186 6.29849L2.0712 4.65491C1.97627 4.56423 1.97627 4.42821 2.0712 4.34887C2.16613 4.25819 2.30853 4.25819 2.3916 4.34887L4.11226 5.99244L4.12412 6.00378C4.21906 6.09446 4.36146 6.11713 4.45639 6.02645C4.55132 5.93577 4.55132 5.77708 4.45639 5.6864L2.73573 4.00882C2.6408 3.91814 2.6408 3.78212 2.73573 3.70277C2.83066 3.61209 2.97306 3.61209 3.05613 3.70277L4.78866 5.35768C4.88359 5.44836 5.03785 5.4597 5.14465 5.35768C5.23959 5.267 5.22772 5.11965 5.13279 5.02897L5.12092 5.01763L3.41213 3.37406C3.31719 3.28338 3.32906 3.14736 3.41213 3.06801C3.49519 2.97733 3.63759 2.97733 3.73253 3.06801ZM8.43171 8.32746L7.56544 9.15491L10.366 11.83C10.6033 12.0567 10.9949 12.0567 11.2322 11.83C11.4696 11.6033 11.4696 11.2292 11.2322 11.0025L8.43171 8.32746ZM11.8256 3.75945C11.8849 3.81612 11.9324 3.89547 11.968 3.97481C12.0392 4.19018 11.9917 4.42821 11.8256 4.5869L4.26652 11.8073C4.02919 12.034 3.63759 12.034 3.40026 11.8073C3.16293 11.5806 3.16293 11.2065 3.40026 10.9798L5.96345 8.55416L5.95158 8.54282C5.71425 8.31612 5.71425 7.94207 5.95158 7.71537L7.81464 5.93577C8.66904 5.11965 9.52344 4.54156 10.093 4.20151C10.4965 3.96348 11.1966 3.56675 11.4577 3.58942C11.6001 3.60076 11.7306 3.66877 11.8256 3.75945Z" fill="#363636"/>
</svg>
