<svg width="20" height="20" viewBox="0 0 20 20" fill="none" xmlns="http://www.w3.org/2000/svg">
<rect opacity="0.01" width="20" height="20" fill="black"/>
<path fill-rule="evenodd" clip-rule="evenodd" d="M3.75 2.5H15.4167C16.7974 2.5 17.9167 3.61929 17.9167 5V13.3333C17.9167 14.714 16.7974 15.8333 15.4167 15.8333H6.70833C6.54749 15.8271 6.3883 15.8677 6.25 15.95L2.50833 18.2167C2.3797 18.293 2.2329 18.3333 2.08333 18.3333C1.94018 18.3329 1.79955 18.2956 1.675 18.225C1.41293 18.0777 1.25052 17.8006 1.25 17.5V5C1.25 3.61929 2.36929 2.5 3.75 2.5ZM9.58333 10C10.0436 10 10.4167 9.6269 10.4167 9.16667C10.4167 8.70643 10.0436 8.33333 9.58333 8.33333C9.1231 8.33333 8.75 8.70643 8.75 9.16667C8.75 9.6269 9.1231 10 9.58333 10ZM13.75 9.16667C13.75 9.6269 13.3769 10 12.9167 10C12.4564 10 12.0833 9.6269 12.0833 9.16667C12.0833 8.70643 12.4564 8.33333 12.9167 8.33333C13.3769 8.33333 13.75 8.70643 13.75 9.16667ZM6.25 10C6.71024 10 7.08333 9.6269 7.08333 9.16667C7.08333 8.70643 6.71024 8.33333 6.25 8.33333C5.78976 8.33333 5.41667 8.70643 5.41667 9.16667C5.41667 9.6269 5.78976 10 6.25 10Z" fill="white"/>
</svg>
