<svg width="16" height="16" viewBox="0 0 16 16" fill="none" xmlns="http://www.w3.org/2000/svg">
<rect opacity="0.01" width="16" height="16" fill="black"/>
<path d="M7.99998 7.33333C9.47274 7.33333 10.6666 6.13943 10.6666 4.66667C10.6666 3.19391 9.47274 2 7.99998 2C6.52722 2 5.33331 3.19391 5.33331 4.66667C5.33331 6.13943 6.52722 7.33333 7.99998 7.33333Z" fill="#363636"/>
<path fill-rule="evenodd" clip-rule="evenodd" d="M3.33331 13.3334C3.33331 13.7015 3.63179 14 3.99998 14C4.36817 14 11.6318 14 12 14C12.3682 14 12.6666 13.7015 12.6666 13.3334C12.6666 10.756 10.5773 8.66669 7.99998 8.66669C5.42265 8.66669 3.33331 10.756 3.33331 13.3334Z" fill="#363636"/>
</svg>
