<svg width="16" height="16" viewBox="0 0 16 16" fill="black" xmlns="http://www.w3.org/2000/svg">
  <rect opacity="0.01" width="16" height="16" fill="black"/>
  <path fill-rule="evenodd" clip-rule="evenodd"
        d="M13.8067 12.86L11.54 10.6C12.2713 9.6683 12.6681 8.51777 12.6667 7.33333C12.6667 4.38781 10.2789 2 7.33333 2C4.38781 2 2 4.38781 2 7.33333C2 10.2789 4.38781 12.6667 7.33333 12.6667C8.51777 12.6681 9.6683 12.2713 10.6 11.54L12.86 13.8067C12.9852 13.9329 13.1556 14.0039 13.3333 14.0039C13.5111 14.0039 13.6815 13.9329 13.8067 13.8067C13.9329 13.6815 14.0039 13.5111 14.0039 13.3333C14.0039 13.1556 13.9329 12.9852 13.8067 12.86Z"
        fill="#3023AE"/>
</svg>
