<svg width="15" height="14" viewBox="0 0 15 14" fill="none" xmlns="http://www.w3.org/2000/svg">
  <path fill-rule="evenodd" clip-rule="evenodd"
        d="M11.6676 13.9964C11.5474 13.9969 11.4289 13.9691 11.3219 13.9154L7.48873 11.9489L3.65554 13.9154C3.4016 14.0462 3.09379 14.024 2.86217 13.8581C2.63055 13.6921 2.51554 13.4115 2.56572 13.1347L3.31732 8.98823L0.220713 6.04226C0.0238347 5.84975 -0.0484485 5.56643 0.0328117 5.30577C0.121684 5.03874 0.357823 4.84448 0.641611 4.80496L4.92576 4.19367L6.81228 0.415463C6.93786 0.16138 7.20062 0 7.48873 0C7.77683 0 8.03959 0.16138 8.16517 0.415463L10.0742 4.1863L14.3584 4.79759C14.6422 4.83712 14.8783 5.03137 14.9672 5.29841C15.0484 5.55906 14.9762 5.84238 14.7793 6.0349L11.6827 8.98087L12.4343 13.1273C12.4891 13.4092 12.3717 13.6967 12.1336 13.8638C11.9975 13.9573 11.8337 14.0039 11.6676 13.9964V13.9964Z"
        fill="black"/>

</svg>
